<svg width="222" height="32" viewBox="0 0 222 32" fill="none" xmlns="http://www.w3.org/2000/svg">
<g id="Helipagos-horizontal" clip-path="url(#clip0_53_863)">
<g id="Layer_1-2">
<path id="Vector" d="M56.1107 6.63046H61.6228V13.8105H73.7365V6.63046H79.2485V25.6827H73.7365V17.9235H61.6228V25.6827H56.1107V6.63046Z" fill="#1A2033"/>
<path id="Vector_2" d="M100.694 19.6018H87.0568C87.3146 21.3983 88.4627 22.728 91.8777 22.728C95.0057 22.728 95.9547 21.9479 96.1538 20.961H100.688C100.541 23.7149 98.163 25.9723 91.8777 25.9723C84.1866 25.9723 81.8904 22.2966 81.8904 18.6741C81.8904 14.0115 85.3933 11.0862 91.5907 11.0862C97.7881 11.0862 100.688 13.7514 100.688 18.414V19.6018H100.694ZM96.1597 16.8244C96.1597 15.5243 95.1814 14.3365 91.8836 14.3365C88.8962 14.3365 87.6075 15.2643 87.174 16.9426H96.1597V16.8244Z" fill="#1A2033"/>
<path id="Vector_3" d="M103.048 5.41312H108.156V25.6827H103.048V5.41312Z" fill="#1A2033"/>
<path id="Vector_4" d="M110.938 5.85042H116.046V9.55568H110.938V5.85042ZM110.938 11.3817H116.046V25.6886H110.938V11.3817Z" fill="#1A2033"/>
<path id="Vector_5" d="M118.835 11.3817H123.943L123.884 14.4783H123.913C124.657 12.3036 126.871 11.0921 130.374 11.0921C136.232 11.0921 139.044 13.8992 139.044 18.2131C139.044 23.4253 135.746 25.9723 130.374 25.9723C126.871 25.9723 124.833 24.8436 123.831 22.988H123.802C123.861 23.768 123.948 25.074 123.948 25.8541V31.415H118.841V11.3817H118.835ZM133.959 18.3904C133.959 16.2157 132.495 14.7974 129.197 14.7974C125.899 14.7974 123.943 16.4166 123.943 18.7627V18.8513C123.943 20.7069 125.635 22.267 129.226 22.267C132.501 22.267 133.965 21.0497 133.965 18.3845L133.959 18.3904Z" fill="#1A2033"/>
<path id="Vector_6" d="M140.619 21.4279C140.619 19.0818 142.084 17.2558 146.073 17.2558H154.022V17.0548C154.022 15.1165 152.874 14.3306 149.628 14.3306C146.641 14.3306 145.897 15.1697 145.897 16.0089C145.897 16.0384 145.897 16.1271 145.926 16.2689H141.106C141.076 16.0089 141.076 15.8079 141.076 15.7488C141.076 13.0246 143.519 11.0862 149.834 11.0862C156.148 11.0862 159.136 13.4028 159.136 17.5453V25.6827H154.028C154.086 24.6958 154.174 23.3958 154.174 22.4975H154.145C153.571 24.554 151.878 25.9723 147.397 25.9723C142.172 25.9723 140.625 23.4844 140.625 21.4279H140.619ZM154.028 20.0392V19.921H147.625C145.903 19.921 145.159 20.2105 145.159 21.1383C145.159 22.0661 146.137 22.728 148.832 22.728C152.276 22.728 154.028 21.2211 154.028 20.0332V20.0392Z" fill="#1A2033"/>
<path id="Vector_7" d="M181.524 26.7878C181.524 29.5653 178.882 32 171.39 32C163.154 32 161.145 29.9435 161.145 28.1174C161.145 26.7583 162.176 25.7123 164.56 25.6295V25.6C163.007 24.8495 162.838 23.6912 162.838 23.0825C162.838 21.8061 163.669 20.5946 165.192 20.3287V20.2696C163.095 19.4305 162.123 17.9531 162.123 16.0975C162.123 13.4028 164.618 11.0862 170.535 11.0862C172.801 11.0862 174.611 11.4053 175.959 12.014L175.988 11.9254C175.531 11.5767 175.127 11.0862 175.127 10.4776C175.127 9.43748 176.216 8.45059 178.975 8.45059C179.778 8.45059 180.44 8.53923 180.698 8.59833V11.494C180.323 11.4349 179.807 11.4053 179.462 11.4053C178.284 11.4053 177.827 11.8958 177.827 12.5932C177.827 12.8827 177.915 13.1723 178.026 13.4914C178.63 14.2183 178.946 15.1106 178.946 16.0975C178.946 18.9045 176.363 21.1088 170.535 21.1088C169.299 21.1088 168.18 21.0201 167.237 20.8487C167.09 21.0497 166.92 21.4279 166.92 21.8356C166.92 22.4148 167.377 22.9053 168.613 22.9053H175.443C180.264 22.9053 181.529 24.8436 181.529 26.7878H181.524ZM176.416 27.4792C176.416 26.7819 175.9 26.321 173.774 26.321H168.748C166.569 26.321 166.253 27.0183 166.253 27.5383C166.253 28.4957 167.834 29.1575 171.39 29.1575C174.945 29.1575 176.416 28.4602 176.416 27.4792ZM166.944 16.1034C166.944 17.3799 168.092 18.1599 170.535 18.1599C172.977 18.1599 174.125 17.2912 174.125 16.1034C174.125 14.9156 172.948 14.0469 170.535 14.0469C168.121 14.0469 166.944 14.9747 166.944 16.1034Z" fill="#1A2033"/>
<path id="Vector_8" d="M182.103 18.5618C182.103 14.7088 184.857 11.0921 192.061 11.0921C199.266 11.0921 202.019 14.7147 202.019 18.5618C202.019 22.4089 199.319 25.9723 192.061 25.9723C184.804 25.9723 182.103 22.4384 182.103 18.5618ZM196.912 18.5618C196.912 16.5348 195.623 14.7974 192.061 14.7974C188.5 14.7974 187.211 16.5348 187.211 18.5618C187.211 20.5887 188.477 22.267 192.061 22.267C195.646 22.267 196.912 20.5592 196.912 18.5618Z" fill="#1A2033"/>
<path id="Vector_9" d="M204.035 20.9374H208.855C208.885 21.8652 209.26 22.7339 212.786 22.7339C216.312 22.7339 216.892 22.1548 216.892 21.2861C216.892 20.8547 216.634 20.4764 215.715 20.3583C214.625 20.2105 212.962 20.2105 211.409 20.1278C208.627 20.0096 206.618 19.6964 205.552 19.0582C204.491 18.4199 204.029 17.3503 204.029 16.133C204.029 13.1191 207.098 11.0921 212.786 11.0921C219.587 11.0921 221.139 13.4382 221.139 16.2157H216.318C216.289 15.1756 215.803 14.3365 212.932 14.3365C210.062 14.3365 209.142 14.9156 209.142 15.8138C209.142 16.3634 209.459 16.653 210.49 16.8303C211.468 16.978 212.932 16.978 214.824 17.0903C216.951 17.2085 218.872 17.3799 220.049 17.9295C221.367 18.5381 222 19.6668 222 21.1147C222 23.4312 220.395 25.9782 212.786 25.9782C205.177 25.9782 204.029 23.1121 204.029 20.9374H204.035Z" fill="#1A2033"/>
<path id="Vector_10" d="M27.8591 17.6399L22.7102 16.1802L18.2115 14.9038C17.4383 14.6851 16.6358 15.1402 16.4191 15.9202L15.6459 18.7095C15.4291 19.4896 14.6266 19.9446 13.8534 19.726L9.93465 18.615C9.16143 18.3963 8.71039 17.5867 8.92713 16.8067L12.3304 4.57397C12.5472 3.79391 12.0961 2.98431 11.3229 2.76566L7.19911 1.59557C6.4259 1.37692 5.6234 1.83195 5.40666 2.61201L0.0527494 21.8238C-0.163985 22.6039 0.287056 23.4135 1.06027 23.6321L18.7446 28.6434C19.5178 28.8621 20.3203 28.407 20.537 27.627L21.8784 22.8166C22.0952 22.0366 22.8977 21.5815 23.6709 21.8002L26.4767 22.5921C27.2499 22.8107 28.0524 22.3557 28.2692 21.5756L28.8608 19.4482C29.0775 18.6681 28.6265 17.8585 27.8533 17.6399H27.8591Z" fill="url(#paint0_linear_53_863)"/>
<path id="Vector_11" d="M45.5083 4.83989L38.7017 2.91339V2.89566L33.1838 1.35328L28.6675 0.0709124C27.7127 -0.200925 26.7169 0.360478 26.4533 1.32964L25.4633 4.88716C25.1939 5.85041 24.2039 6.41182 23.2491 6.14589L21.1814 5.56085C20.2266 5.28901 19.2308 5.85041 18.9672 6.81957L18.5571 8.29695C18.2877 9.2602 18.8442 10.2648 19.8048 10.5307L24.2742 11.7954L28.7905 13.0777C29.7453 13.3496 30.7411 12.7882 31.0047 11.819L31.4909 10.0698C31.7603 9.10655 32.7503 8.54515 33.7051 8.81108L36.9678 9.73296C37.9226 10.0048 38.4791 11.0035 38.2155 11.9668L35.1051 23.1475C34.8356 24.1108 35.3921 25.1154 36.3528 25.3813L39.5569 26.2914C40.5117 26.5632 41.5075 26.0018 41.7711 25.0327L46.7677 7.06777C47.0372 6.10452 46.4807 5.09991 45.52 4.83398L45.5083 4.83989Z" fill="url(#paint1_linear_53_863)"/>
</g>
</g>
<defs>
<linearGradient id="paint0_linear_53_863" x1="-3.46185" y1="23.2657" x2="51.8938" y2="-3.70323" gradientUnits="userSpaceOnUse">
<stop offset="0.15" stop-color="#0049EA"/>
<stop offset="0.61" stop-color="#00228E"/>
</linearGradient>
<linearGradient id="paint1_linear_53_863" x1="-0.111263" y1="30.1444" x2="55.2503" y2="3.17545" gradientUnits="userSpaceOnUse">
<stop offset="0.15" stop-color="#0049EA"/>
<stop offset="0.61" stop-color="#00228E"/>
</linearGradient>
<clipPath id="clip0_53_863">
<rect width="222" height="32" fill="white"/>
</clipPath>
</defs>
</svg>
